<svg width="128.77mm" height="126.59mm" version="1.1" viewBox="0 0 128.76195 126.58806" xmlns="http://www.w3.org/2000/svg"><g transform="rotate(-15 -567.74 159.47)"><path d="m54.119 163.35c-.35544-.001-.69379.0691-1.0015.1975-.92317.3852-1.5704 1.2934-1.5743 2.3597l-.0498 13.687c-.0333 9.1535 4.3276 17.757 11.869 22.939 1.9902 1.3657 3.6632 3.0204 5.004 4.8683 4.4106-1.987 9.1699-3.0905 13.986-3.2538-2.5077-5.0232-6.2886-9.4987-11.246-12.9-3.7697-2.5916-5.9431-6.8981-5.926-11.603l.0498-13.687c.005-1.4218-1.1353-2.5706-2.5571-2.5758zm40.061 20.729a10.266 10.266 0 0 0 -10.266 10.266 10.266 10.266 0 0 0 10.266 10.266 10.266 10.266 0 0 0 10.266 -10.266 10.266 10.266 0 0 0 -10.266 -10.266zm-10.591 22.588c-10.843.0515-21.483 5.2432-28.083 14.861-3.266 4.7594-5.1645 10.052-5.7825 15.413 8.6721.83524 13.843-3.4143 16.839-7.6082 10.226-12.516 22.034-9.7155 28.775-5.3726 11.322 7.7587 25.791 9.295 38.509 4.2348 1.3211-.52564 1.9614-2.0123 1.4358-3.3333l-3.1627-7.9487c-.52563-1.3211-2.0123-1.9614-3.3333-1.4358-8.7435 3.4789-18.156 2.3674-25.704-2.8028-5.9652-4.0934-12.768-6.039-19.494-6.007zm-.19449 16.638c-7.2746.0661-11.776 3.9126-14.491 7.7133-10.226 12.516-22.034 9.7155-28.775 5.3726-11.322-7.7587-25.791-9.295-38.509-4.2348-1.3211.52564-1.9614 2.0123-1.4357 3.3333l3.1627 7.9487c.52564 1.3211 2.0123 1.9614 3.3333 1.4358 8.7435-3.4789 18.156-2.3674 25.704 2.8028 15.583 10.693 36.883 6.7291 47.576-8.8535 3.266-4.7594 5.1645-10.052 5.7825-15.413-.81301-.0783-1.5953-.11194-2.3479-.1051zm-16.294 29.644c-4.4106 1.987-9.1699 3.0905-13.986 3.2538 2.5077 5.0232 6.2886 9.4987 11.246 12.9 3.7697 2.5916 5.9431 6.8981 5.926 11.603l-.0498 13.687c-.005 1.4218 1.1353 2.5706 2.5571 2.5758l8.5547.0312c.35544.001.69379-.0691 1.0015-.19749.92317-.3852 1.5704-1.2934 1.5743-2.3597l.0498-13.687c.0333-9.1535-4.3276-17.757-11.869-22.939-1.9902-1.3657-3.6632-3.0204-5.004-4.8683z" style="fill:#fff"/></g></svg>
