<svg xmlns:rdf="http://www.w3.org/1999/02/22-rdf-syntax-ns#" xmlns="http://www.w3.org/2000/svg" version="1.1" xmlns:cc="http://creativecommons.org/ns#" xmlns:dc="http://purl.org/dc/elements/1.1/" viewBox="0 0 141 96"><path d="m3 0c-1.662 0-3 1.338-3 3v90c0 1.662 1.338 3 3 3s3-1.338 3-3v-45c0-23.196 18.804-42 42-42s42 18.804 42 42v21c0 1.662 1.338 3 3 3s3-1.338 3-3v-21c0-26.51-21.49-48-48-48-17.485 0.021908-33.575 9.5499-42 24.871v-21.871c0-1.662-1.338-3-3-3z"/><path d="m138 96c1.662 0 3-1.338 3-3v-90c0-1.662-1.338-3-3-3s-3 1.338-3 3v45c0 23.196-18.8 42-42 42-23.196 0-42-18.804-42-42v-21c0-1.662-1.338-3-3-3s-3 1.338-3 3v21c0 26.51 21.49 48 48 48 17.485-0.0219 33.575-9.5498 42-24.871v21.871c0 1.662 1.338 3 3 3z"/></svg>