<svg xmlns:svg="http://www.w3.org/2000/svg" xmlns="http://www.w3.org/2000/svg" xmlns:xlink="http://www.w3.org/1999/xlink" width="100" height="100" id="svg4538" version="1.1"><style>.s0{stop-color:#00aeef;stop-opacity:1;}.s1{stop-color:#00aeef;stop-opacity:0;}.s2{stop-color:#ff0000;stop-opacity:1;}.s3{stop-color:#ff0000;stop-opacity:0;}</style><defs id="defs4540"><linearGradient id="linearGradient3814"><stop offset="0" id="stop3816" style="stop-color:#ffffff;stop-opacity:1"/><stop offset="1" id="stop3818" style="stop-color:#ffffff;stop-opacity:0"/></linearGradient><linearGradient id="linearGradient5118"><stop offset="0" id="stop5120" class="s0"/><stop offset="1" id="stop5122" class="s1"/></linearGradient><linearGradient id="linearGradient5104"><stop offset="0" id="stop5106" class="s0"/><stop offset="1" id="stop5108" class="s1"/></linearGradient><linearGradient id="linearGradient5090"><stop offset="0" id="stop5092" class="s0"/><stop offset="1" id="stop5094" class="s1"/></linearGradient><linearGradient id="linearGradient5072"><stop offset="0" id="stop5074" class="s2"/><stop offset="1" id="stop5076" class="s3"/></linearGradient><linearGradient id="linearGradient5056"><stop offset="0" id="stop5058" class="s2"/><stop offset="1" id="stop5060" class="s3"/></linearGradient><filter id="filter5064" color-interpolation-filters="sRGB"><feGaussianBlur stdDeviation="6.1" id="feGaussianBlur5066"/></filter><filter id="filter5080" color-interpolation-filters="sRGB"><feGaussianBlur stdDeviation="4.7" id="feGaussianBlur5082"/></filter><filter id="filter5086" color-interpolation-filters="sRGB"><feGaussianBlur stdDeviation="10.8" id="feGaussianBlur5088"/></filter><filter id="filter5100" color-interpolation-filters="sRGB"><feGaussianBlur stdDeviation="14.8" id="feGaussianBlur5102"/></filter><filter id="filter5114" color-interpolation-filters="sRGB"><feGaussianBlur stdDeviation="13.6" id="feGaussianBlur5116"/></filter><filter id="filter5140" x="-0.2" width="1.4" y="-0.2" height="1.4" color-interpolation-filters="sRGB"><feGaussianBlur stdDeviation="20.4" id="feGaussianBlur5142"/></filter><radialGradient xlink:href="#linearGradient5056" id="radialGradient3028" gradientUnits="userSpaceOnUse" gradientTransform="matrix(1,0,0,1.0258621,0,-11.595941)" cx="71" cy="448.4" fx="71" fy="448.4" r="74.9"/><radialGradient xlink:href="#linearGradient5072" id="radialGradient3030" gradientUnits="userSpaceOnUse" gradientTransform="matrix(1,0,0,0.989011,0,0.86337708)" cx="74.2" cy="78.6" fx="74.2" fy="78.6" r="58.7"/><radialGradient xlink:href="#linearGradient5090" id="radialGradient3032" gradientUnits="userSpaceOnUse" gradientTransform="matrix(1,0,0,1.0120859,0,0.57146464)" cx="467.3" cy="-47.3" fx="467.3" fy="-47.3" r="160.2"/><radialGradient xlink:href="#linearGradient5104" id="radialGradient3034" gradientUnits="userSpaceOnUse" cx="340.1" cy="19.8" fx="340.1" fy="19.8" r="220.8"/><radialGradient xlink:href="#linearGradient5118" id="radialGradient3036" gradientUnits="userSpaceOnUse" gradientTransform="matrix(1,0,0,0.9968213,0,0.03843745)" cx="491.8" cy="12.1" fx="491.8" fy="12.1" r="203"/><radialGradient xlink:href="#linearGradient5104" id="radialGradient3812" gradientUnits="userSpaceOnUse" cx="340.1" cy="19.8" fx="340.1" fy="19.8" r="220.8" gradientTransform="matrix(0.73082905,-0.00199693,0.00268998,0.72879711,91.49722,6.0590144)"/><radialGradient xlink:href="#linearGradient3814" id="radialGradient3820" cx="606" cy="8.9" fx="606" fy="8.9" r="87.1" gradientTransform="matrix(0.88594467,-0.05384433,0.05293835,1.4673286,68.650646,28.487827)" gradientUnits="userSpaceOnUse"/><radialGradient xlink:href="#linearGradient5056" id="radialGradient3822" gradientUnits="userSpaceOnUse" gradientTransform="matrix(0.88312231,-0.0320976,0.04381352,0.89240381,-11.347439,50.52224)" cx="71" cy="448.4" fx="71" fy="448.4" r="74.9"/><radialGradient xlink:href="#linearGradient5072" id="radialGradient3824" gradientUnits="userSpaceOnUse" gradientTransform="matrix(0.80387791,-0.06989756,0.08008053,0.77068888,8.2644358,23.20416)" cx="74.2" cy="78.6" fx="74.2" fy="78.6" r="58.7"/><radialGradient xlink:href="#linearGradient5090" id="radialGradient3826" gradientUnits="userSpaceOnUse" gradientTransform="matrix(0.80904945,-0.00534012,0.0071511,0.77690417,89.562146,-8.0535558)" cx="467.3" cy="-47.3" fx="467.3" fy="-47.3" r="160.2"/><radialGradient xlink:href="#linearGradient5118" id="radialGradient3828" gradientUnits="userSpaceOnUse" gradientTransform="matrix(0.75010102,0.01228652,-0.01675158,0.75709698,123.09969,-3.1051237)" cx="491.8" cy="12.1" fx="491.8" fy="12.1" r="203"/></defs><metadata id="metadata4543"/><g id="layer1" transform="translate(0,-380)"><path id="path4546" d="m145.9 448.4a74.9 76.8 0 1 1-149.7 0 74.9 76.8 0 1 1 149.7 0z" transform="matrix(0.22777674,0,0,0.25492904,-7.4666949,359.97845)" style="fill:url(#radialGradient3822);opacity:0.3"/><path id="path5068" d="m133 78.6a58.7 51.1 0 1 1-117.5 0 58.7 51.1 0 1 1 117.5 0z" transform="matrix(0.43052307,0,0,0.45320718,-24.425562,354.27198)" style="fill:url(#radialGradient3824);opacity:0.3"/><path id="path5084" d="m601.5-47.3a134.2 136.2 0 1 1-268.5 0 134.2 136.2 0 1 1 268.5 0z" transform="matrix(0.35624434,0,0,0.40511174,-146.58339,451.31832)" style="fill:url(#radialGradient3826);opacity:0.3"/><path id="path5098" d="m525.3 19.8a185.2 185.2 0 1 1-370.5 0 185.2 185.2 0 1 1 370.5 0z" transform="matrix(0.22777674,0,0,0.25492904,-9.2307531,393.87136)" style="fill:url(#radialGradient3812);opacity:0.3"/><path id="path5112" d="m662.2 12.1a170.4 169.7 0 1 1-340.8 0 170.4 169.7 0 1 1 340.8 0z" transform="matrix(0.22777674,0,0,0.25492904,-76.852982,407.03366)" style="fill:url(#radialGradient3828);opacity:0.3"/><path id="path5126" d="m693.1 8.9a87.1 158.8 0 1 10-2.3" transform="matrix(0.2519398,0.23426797,-0.198643,0.21040402,-113.06697,274.21244)" style="fill:url(#radialGradient3820);opacity:0.9"/></g></svg>