<svg xmlns:svg="http://www.w3.org/2000/svg" xmlns="http://www.w3.org/2000/svg" xmlns:xlink="http://www.w3.org/1999/xlink" width="100" height="100" id="svg2985" version="1.1"><style>.s0{stop-color:#2a7fff;stop-opacity:1;}.s1{stop-color:#2a7fff;stop-opacity:0;}</style><defs id="defs2987"><linearGradient id="linearGradient3849"><stop offset="0" id="stop3851" style="stop-color:#ffbc08;stop-opacity:1"/><stop offset="1" id="stop3853" style="stop-color:#ffbc08;stop-opacity:0"/></linearGradient><linearGradient id="linearGradient3831"><stop offset="0" id="stop3833" style="stop-color:#ff0000;stop-opacity:1"/><stop offset="1" id="stop3835" style="stop-color:#ff0000;stop-opacity:0"/></linearGradient><linearGradient id="linearGradient3821"><stop offset="0" id="stop3823" style="stop-color:#fbc4dd;stop-opacity:1"/><stop offset="1" id="stop3825" style="stop-color:#fbc4dd;stop-opacity:0"/></linearGradient><linearGradient id="linearGradient3801"><stop offset="0" id="stop3803" class="s0"/><stop offset="1" id="stop3805" class="s1"/></linearGradient><linearGradient id="linearGradient3763"><stop offset="0" id="stop3765" class="s0"/><stop offset="1" id="stop3767" class="s1"/></linearGradient><radialGradient xlink:href="#linearGradient3763" id="radialGradient3769" cx="185.23" cy="238.62" fx="185.23" fy="238.62" r="265.26" gradientTransform="matrix(1,0,0,1.0851582,0,-20.32079)" gradientUnits="userSpaceOnUse"/><radialGradient xlink:href="#linearGradient3801" id="radialGradient3807" cx="591.82" cy="166.34" fx="591.82" fy="166.34" r="238.07" gradientTransform="matrix(1,0,0,1.1638708,0,-27.258345)" gradientUnits="userSpaceOnUse"/><radialGradient xlink:href="#linearGradient3801" id="radialGradient3810" gradientUnits="userSpaceOnUse" gradientTransform="matrix(1,0,-0.33253452,0.87636699,-137.0123,4.4304105)" cx="591.82" cy="166.34" fx="591.82" fy="166.34" r="238.07"/><radialGradient xlink:href="#linearGradient3801" id="radialGradient3813" gradientUnits="userSpaceOnUse" gradientTransform="matrix(0.63320188,0.12575186,-0.44071955,0.89270816,30.661486,-48.380593)" cx="390.69" cy="225.26" fx="390.69" fy="225.26" r="238.07"/><radialGradient xlink:href="#linearGradient3821" id="radialGradient3827" cx="347.22" cy="287.67" fx="347.22" fy="287.67" r="298.3" gradientTransform="matrix(0.65792955,1.5290621e-4,-9.3818438e-5,0.40368275,118.80064,171.49175)" gradientUnits="userSpaceOnUse"/><radialGradient xlink:href="#linearGradient3831" id="radialGradient3837" cx="614.41" cy="529.7" fx="614.41" fy="529.7" r="149.73" gradientTransform="matrix(0.88952404,-0.03720598,-0.0139889,0.73942549,75.287532,160.88479)" gradientUnits="userSpaceOnUse"/><radialGradient xlink:href="#linearGradient3849" id="radialGradient3855" cx="418.21" cy="-108.6" fx="418.21" fy="-108.6" r="127.63" gradientTransform="matrix(0.60260485,-0.00411515,0.00927435,0.5889139,167.20288,-42.921195)" gradientUnits="userSpaceOnUse"/><radialGradient xlink:href="#linearGradient3849" id="radialGradient3782" gradientUnits="userSpaceOnUse" gradientTransform="matrix(0.60260485,-0.00411515,0.00927435,0.5889139,167.20288,-42.921195)" cx="418.21" cy="-108.6" fx="418.21" fy="-108.6" r="127.63"/><radialGradient xlink:href="#linearGradient3821" id="radialGradient3784" gradientUnits="userSpaceOnUse" gradientTransform="matrix(0.65792955,1.5290621e-4,-9.3818438e-5,0.40368275,118.80064,171.49175)" cx="347.22" cy="287.67" fx="347.22" fy="287.67" r="298.3"/><radialGradient xlink:href="#linearGradient3801" id="radialGradient3786" gradientUnits="userSpaceOnUse" gradientTransform="matrix(0.63320188,0.12575186,-0.44071955,0.89270816,30.661486,-48.380593)" cx="390.69" cy="225.26" fx="390.69" fy="225.26" r="238.07"/><radialGradient xlink:href="#linearGradient3831" id="radialGradient3788" gradientUnits="userSpaceOnUse" gradientTransform="matrix(0.88952404,-0.03720598,-0.0139889,0.73942549,75.287532,160.88479)" cx="614.41" cy="529.7" fx="614.41" fy="529.7" r="149.73"/></defs><metadata id="metadata2990"/><g id="layer1" transform="translate(0,-380)"><g id="g3776" transform="matrix(0.193329,0,0,0.20526606,-14.162003,375.47362)"><path transform="matrix(0.94653457,0,0,1.4373946,166.55763,356.64104)" d="m511.15-108.6c0 48.48-41.61 87.77-92.94 87.77-51.33 0-92.94-39.3-92.94-87.77 0-48.48 41.61-87.77 92.94-87.77 51.33 0 92.94 39.3 92.94 87.77z" id="path3843" style="fill:url(#radialGradient3782);opacity:0.25"/><path d="m574.4 287.67c0 79.13-101.71 143.28-227.18 143.28-125.47 0-227.18-64.15-227.18-143.28 0-79.13 101.71-143.28 227.18-143.28 125.47 0 227.18 64.15 227.18 143.28z" id="path3815" style="fill:url(#radialGradient3784);opacity:0.5"/><path id="path3795" d="m201.03-52.41c-118.44 0-238.29 104.88-267.69 234.25-29.4 129.37 42.77 234.22 161.22 234.22 75.7 0 151.98-42.83 204.84-107.53 11.58 3.23 24.32 4.97 38.13 4.97 90.18 0 191.03-73.1 225.25-163.28C597 60.04 551.65-13.06 461.47-13.06c-39.75 0-81.6 14.2-118.87 37.81-28.48-47.38-78.46-77.16-141.56-77.16z" style="fill:url(#radialGradient3786);opacity:0.25"/><path transform="matrix(0.83649119,0,0.28837439,1.0617945,-120.489,-102.43437)" d="m764.14 529.7c0 73.78-67.04 133.6-149.73 133.6-82.69 0-149.73-59.81-149.73-133.6 0-73.78 67.04-133.6 149.73-133.6 82.69 0 149.73 59.81 149.73 133.6z" id="path3829" style="fill:url(#radialGradient3788);opacity:0.25"/></g></g></svg>