<svg xmlns:svg="http://www.w3.org/2000/svg" xmlns="http://www.w3.org/2000/svg" xmlns:xlink="http://www.w3.org/1999/xlink" width="100" height="100" id="svg2" version="1.1"><style>.s0{stop-color:#ff0000;stop-opacity:1;}.s1{stop-color:#ff0000;stop-opacity:0;}.s2{stop-color:#ffbc08;stop-opacity:1;}.s3{stop-color:#ffbc08;stop-opacity:0;}</style><defs id="defs4"><linearGradient id="linearGradient3933"><stop offset="0" id="stop3935" class="s0"/><stop offset="1" id="stop3937" class="s1"/></linearGradient><linearGradient id="linearGradient3912"><stop offset="0" id="stop3914" class="s2"/><stop offset="1" id="stop3916" class="s3"/></linearGradient><linearGradient id="linearGradient3902"><stop offset="0" id="stop3904" class="s2"/><stop offset="1" id="stop3906" class="s3"/></linearGradient><linearGradient id="linearGradient3882"><stop offset="0" id="stop3884" class="s0"/><stop offset="1" id="stop3886" class="s1"/></linearGradient><linearGradient id="linearGradient3856"><stop offset="0" id="stop3858" class="s0"/><stop offset="1" id="stop3860" class="s1"/></linearGradient><linearGradient id="linearGradient3846"><stop offset="0" id="stop3848" class="s0"/><stop offset="1" id="stop3850" class="s1"/></linearGradient><linearGradient id="linearGradient3836"><stop offset="0" id="stop3838" class="s0"/><stop offset="1" id="stop3840" class="s1"/></linearGradient><linearGradient xlink:href="#linearGradient3836" id="linearGradient3806" gradientUnits="userSpaceOnUse" x1="716" y1="-23.5" x2="463" y2="158.5"/><radialGradient xlink:href="#linearGradient3846" id="radialGradient3808" gradientUnits="userSpaceOnUse" gradientTransform="matrix(0.9998576,-0.0185287,0.05517241,3.5892656,15.741374,744.77329)" cx="508.5" cy="-284" fx="508.5" fy="-284" r="47.5"/><radialGradient xlink:href="#linearGradient3856" id="radialGradient3810" gradientUnits="userSpaceOnUse" gradientTransform="matrix(0.83386861,-0.0883613,-0.04446897,2.2787386,75.181235,202.78594)" cx="486" cy="-125" fx="486" fy="-125" r="68"/><radialGradient xlink:href="#linearGradient3882" id="radialGradient3812" gradientUnits="userSpaceOnUse" gradientTransform="matrix(0.99826504,-0.03769958,-0.01693748,2.4410013,-3.1739283,369.72518)" cx="538" cy="-242.5" fx="538" fy="-242.5" r="59"/><radialGradient xlink:href="#linearGradient3902" id="radialGradient3814" gradientUnits="userSpaceOnUse" gradientTransform="matrix(0.82666666,0,0,0.97297297,90.306668,-10.216216)" cx="521" cy="-378" fx="521" fy="-378" r="74"/><radialGradient xlink:href="#linearGradient3912" id="radialGradient3816" gradientUnits="userSpaceOnUse" gradientTransform="matrix(0.99990162,-0.01496348,0.0127268,0.96783038,4.1718241,-5.038353)" cx="362" cy="-325" fx="362" fy="-325" r="140"/><radialGradient xlink:href="#linearGradient3933" id="radialGradient3818" gradientUnits="userSpaceOnUse" gradientTransform="matrix(0.92056233,-0.00235943,0.00245488,0.71757028,-0.32249913,142.2305)" cx="11.5" cy="503.5" fx="11.5" fy="503.5" r="123.5"/><linearGradient xlink:href="#linearGradient3836" id="linearGradient3827" gradientUnits="userSpaceOnUse" x1="716" y1="-23.5" x2="463" y2="158.5" gradientTransform="matrix(0.13575382,0,0,0.20047634,0.83347305,959.89741)"/></defs><metadata id="metadata7"/><g id="layer1" transform="translate(0,-952.36218)"><rect id="rect3066" width="72.8" height="108.1" x="36.8" y="948.1" style="fill:url(#linearGradient3827);opacity:0.3"/><path id="path3844" d="m556-284c0 100.5-21.3 182-47.5 182-26.2 0-47.5-81.5-47.5-182 0-100.5 21.3-182 47.5-182 26 0 47.2 80.2 47.5 179.8" transform="matrix(0.2072032,0,0,0.21151811,-43.643765,1088.937)" style="fill:url(#radialGradient3808);opacity:0.3"/><path id="path3854" d="m554-125c0 103.8-30.4 188-68 188-37.6 0-68-84.2-68-188 0-103.8 30.4-188 68-188 37.6 0 68 84.2 68 188z" transform="matrix(0.21245356,0,0.04520288,0.15215927,-23.133086,983.37027)" style="fill:url(#radialGradient3810);opacity:0.3"/><path id="path3880" d="m597-242.5c0 93.6-26.4 169.5-59 169.5-32.6 0-59-75.9-59-169.5 0-93.6 26.4-169.5 59-169.5 32.6 0 59 75.9 59 169.5z" transform="matrix(0.18477307,0,0.05668554,0.20303091,-2.9686415,1064.1783)" style="fill:url(#radialGradient3812);opacity:0.3"/><path id="path3900" d="m595-378c0 39.8-33.1 72-74 72-40.9 0-74-32.2-74-72 0-39.8 33.1-72 74-72 40.9 0 74 32.2 74 72z" transform="matrix(0.27517666,0,0,0.34341501,-55.651123,1133.3422)" style="fill:url(#radialGradient3814);opacity:0.3"/><path id="path3910" d="m502-325c0 80.1-62.7 145-140 145-77.3 0-140-64.9-140-145 0-80.1 62.7-145 140-145 77.3 0 140 64.9 140 145z" transform="matrix(0.15238236,0,0,0.16010446,-24.395226,1044.2295)" style="fill:url(#radialGradient3816);opacity:0.3"/><path id="path3931" d="M135 503.5C135 557.9 79.7 602 11.5 602-56.7 602-112 557.9-112 503.5-112 449.1-56.7 405 11.5 405c67.3 0 122.3 43 123.5 96.7" transform="matrix(0.16631651,0,0,0.21537166,2.6274485,920.81876)" style="fill:url(#radialGradient3818);opacity:0.3"/></g></svg>