<svg xmlns:svg="http://www.w3.org/2000/svg" xmlns="http://www.w3.org/2000/svg" xmlns:xlink="http://www.w3.org/1999/xlink" width="100" height="100" id="svg2985" version="1.1"><style>.s0{stop-color:#2a7fff;stop-opacity:1;}.s1{stop-color:#2a7fff;stop-opacity:0;}</style><defs id="defs2987"><linearGradient id="linearGradient4526"><stop offset="0" id="stop4528" style="stop-color:#ffffff;stop-opacity:1"/><stop offset="1" id="stop4530" style="stop-color:#ffffff;stop-opacity:0"/></linearGradient><linearGradient id="linearGradient3853"><stop offset="0" id="stop3855" class="s0"/><stop offset="1" id="stop3857" class="s1"/></linearGradient><linearGradient id="linearGradient3843"><stop offset="0" id="stop3845" class="s0"/><stop offset="1" id="stop3847" class="s1"/></linearGradient><linearGradient id="linearGradient3829"><stop offset="0" id="stop3831" style="stop-color:#ff0000;stop-opacity:1"/><stop offset="1" id="stop3833" style="stop-color:#ff0000;stop-opacity:0"/></linearGradient><linearGradient id="linearGradient3803"><stop offset="0" id="stop3805" style="stop-color:#fabdd8;stop-opacity:1"/><stop offset="1" id="stop3807" style="stop-color:#fabdd8;stop-opacity:0"/></linearGradient><linearGradient id="linearGradient3785"><stop offset="0" id="stop3787" style="stop-color:#fdf368;stop-opacity:1"/><stop offset="1" id="stop3789" style="stop-color:#fdf368;stop-opacity:0"/></linearGradient><linearGradient id="linearGradient3767"><stop offset="0" id="stop3769" style="stop-color:#f8aaae;stop-opacity:1"/><stop offset="1" id="stop3771" style="stop-color:#f8aaae;stop-opacity:0"/></linearGradient><radialGradient xlink:href="#linearGradient3767" id="radialGradient3773" cx="616.3" cy="129.6" fx="616.3" fy="129.6" r="329.7" gradientTransform="matrix(0.64035994,-0.00845214,0.00935827,0.59143784,220.45087,58.139987)" gradientUnits="userSpaceOnUse"/><radialGradient xlink:href="#linearGradient3785" id="radialGradient3791" cx="341.4" cy="271.5" fx="341.4" fy="271.5" r="186.3" gradientTransform="matrix(0.76064686,-0.0011137,0.00106023,0.83591688,81.429984,44.935214)" gradientUnits="userSpaceOnUse"/><radialGradient xlink:href="#linearGradient3803" id="radialGradient3809" cx="-306.6" cy="53.4" fx="-306.6" fy="53.4" r="75.9" gradientUnits="userSpaceOnUse" gradientTransform="matrix(0.29771695,-0.01340968,0.00916243,0.20342091,-215.78132,38.424189)"/><radialGradient xlink:href="#linearGradient3829" id="radialGradient3835" cx="-404" cy="2.4" fx="-404" fy="2.4" r="48.2" gradientUnits="userSpaceOnUse" gradientTransform="matrix(0.55098965,-0.06512199,0.06500932,0.55003633,-181.5633,-25.22519)"/><radialGradient xlink:href="#linearGradient3843" id="radialGradient3849" cx="-353.7" cy="-106" fx="-353.7" fy="-106" r="142" gradientTransform="matrix(0.87569841,0.00531305,-0.00525655,0.86638685,-44.519483,-12.28581)" gradientUnits="userSpaceOnUse"/><radialGradient xlink:href="#linearGradient3853" id="radialGradient3859" cx="-224.6" cy="201.2" fx="-224.6" fy="201.2" r="267.2" gradientTransform="matrix(0.8605719,4.5560505e-4,-4.7871395e-4,0.90422673,-31.218648,19.371078)" gradientUnits="userSpaceOnUse"/><radialGradient xlink:href="#linearGradient4526" id="radialGradient4532" cx="-651.8" cy="-11.8" fx="-651.8" fy="-11.8" r="21.9" gradientTransform="matrix(1,0,0,1.0588236,0,0.69336737)" gradientUnits="userSpaceOnUse"/><radialGradient xlink:href="#linearGradient3785" id="radialGradient3808" gradientUnits="userSpaceOnUse" gradientTransform="matrix(0.76064686,-0.0011137,0.00106023,0.83591688,81.429984,44.935214)" cx="341.4" cy="271.5" fx="341.4" fy="271.5" r="186.3"/><radialGradient xlink:href="#linearGradient3767" id="radialGradient3810" gradientUnits="userSpaceOnUse" gradientTransform="matrix(0.64035994,-0.00845214,0.00935827,0.59143784,220.45087,58.139987)" cx="616.3" cy="129.6" fx="616.3" fy="129.6" r="329.7"/><radialGradient xlink:href="#linearGradient3803" id="radialGradient3812" gradientUnits="userSpaceOnUse" gradientTransform="matrix(0.29771695,-0.01340968,0.00916243,0.20342091,-215.78132,38.424189)" cx="-306.6" cy="53.4" fx="-306.6" fy="53.4" r="75.9"/><radialGradient xlink:href="#linearGradient3829" id="radialGradient3814" gradientUnits="userSpaceOnUse" gradientTransform="matrix(0.55017626,-0.06750327,0.06500932,0.47027856,-181.89192,-25.994936)" cx="-404" cy="2.4" fx="-404" fy="2.4" r="48.2"/><radialGradient xlink:href="#linearGradient3843" id="radialGradient3816" gradientUnits="userSpaceOnUse" gradientTransform="matrix(0.87569841,0.00531305,-0.00525655,0.86638685,-44.519483,-12.28581)" cx="-353.7" cy="-106" fx="-353.7" fy="-106" r="142"/><radialGradient xlink:href="#linearGradient3853" id="radialGradient3818" gradientUnits="userSpaceOnUse" gradientTransform="matrix(0.8605719,4.5560505e-4,-4.7871395e-4,0.90422673,-31.218648,19.371078)" cx="-224.6" cy="201.2" fx="-224.6" fy="201.2" r="267.2"/><radialGradient xlink:href="#linearGradient4526" id="radialGradient3820" gradientUnits="userSpaceOnUse" gradientTransform="matrix(1,0,0,1.0588236,0,0.69336737)" cx="-651.8" cy="-11.8" fx="-651.8" fy="-11.8" r="21.9"/><radialGradient xlink:href="#linearGradient3843" id="radialGradient3829" gradientUnits="userSpaceOnUse" gradientTransform="matrix(0.76470409,-0.01418219,0.02746433,0.7712749,-80.306382,-29.26398)" cx="-353.7" cy="-106" fx="-353.7" fy="-106" r="142"/><radialGradient xlink:href="#linearGradient4526" id="radialGradient3831" gradientUnits="userSpaceOnUse" gradientTransform="matrix(0.57956113,0.31822149,-0.41039097,0.64515863,-278.89792,203.24817)" cx="-651.8" cy="-11.8" fx="-651.8" fy="-11.8" r="21.9"/></defs><metadata id="metadata2990"/><g id="layer1" transform="translate(0,-380)"><path id="path3851" d="m42.6 201.2c0 151.8-119.6 274.9-267.2 274.9-147.6 0-267.2-123.1-267.2-274.9 0-151.8 119.6-274.9 267.2-274.9 147.6 0 267.2 123.1 267.2 274.9z" transform="matrix(0.16426005,0,0,0.21625712,37.638441,388.33923)" style="fill:url(#radialGradient3818);opacity:0.3"/><path id="path3841" d="m-211.7-106c0 79.1-63.6 143.3-142 143.3-78.4 0-142-64.1-142-143.3 0-79.1 63.6-143.3 142-143.3 78.4 0 142 64.1 142 143.3z" transform="matrix(0.16426005,0,0,0.21625712,86.615896,432.16428)" style="fill:url(#radialGradient3829);opacity:0.3"/><path id="path3779" d="m497 271.5c0 90.9-69.6 164.6-155.5 164.6-85.9 0-155.5-73.7-155.5-164.6 0-90.9 69.6-164.6 155.5-164.6 85.9 0 155.5 73.7 155.5 164.6z" transform="matrix(0.23597045,0,0,0.28914892,-33.913542,359.89291)" style="fill:url(#radialGradient3808);opacity:0.3"/><path id="path2993" d="m851.9 129.6c0 121.5-105.5 220.1-235.6 220.1-130.1 0-235.6-98.5-235.6-220.1 0-121.5 105.5-220.1 235.6-220.1 130.1 0 235.6 98.5 235.6 220.1z" transform="matrix(0.17686082,0,0,0.2549424,-23.345939,374.25537)" style="fill:url(#radialGradient3810);opacity:0.3"/><path id="path3793" d="m-251.7 53.4c0 30.3-24.6 54.9-54.9 54.9-30.3 0-54.9-24.6-54.9-54.9 0-30.3 24.6-54.9 54.9-54.9 30.3 0 54.9 24.6 54.9 54.9z" transform="matrix(0.16426005,0,0,0.21625712,135.38133,406.20422)" style="fill:url(#radialGradient3812);opacity:0.3"/><path id="path3823" d="m-369.2 2.4c0 19.2-15.6 34.9-34.9 34.9-19.2 0-34.9-15.6-34.9-34.9 0-19.2 15.6-34.9 34.9-34.9 19.2 0 34.9 15.6 34.9 34.9z" transform="matrix(0.16426005,0,0,0.21625712,152.34321,419.04468)" style="fill:url(#radialGradient3814);opacity:0.3"/><path id="path4016" d="m-629.9-11.8c0 12.8-9.8 23.2-21.9 23.2-12.1 0-21.9-10.4-21.9-23.2 0-12.8 9.8-23.2 21.9-23.2 12.1 0 21.9 10.4 21.9 23.2z" transform="matrix(0.26897574,0,0,0.28951004,261.27598,423.06223)" style="fill:url(#radialGradient3831);opacity:0.9"/></g></svg>