<svg xmlns:svg="http://www.w3.org/2000/svg" xmlns="http://www.w3.org/2000/svg" xmlns:xlink="http://www.w3.org/1999/xlink" width="100" height="100" id="svg5217" version="1.1"><style>.s0{stop-color:#ff0000;stop-opacity:1;}.s1{stop-color:#ff0000;stop-opacity:0;}.s2{stop-color:#ffbc08;stop-opacity:1;}.s3{stop-color:#ffbc08;stop-opacity:0;}</style><defs id="defs5219"><linearGradient id="linearGradient3837"><stop offset="0" id="stop3839" style="stop-color:#ffffff;stop-opacity:1"/><stop offset="1" id="stop3841" style="stop-color:#ffffff;stop-opacity:0"/></linearGradient><linearGradient id="linearGradient5941"><stop offset="0" id="stop5943" style="stop-color:#ff7abe;stop-opacity:1"/><stop offset="1" id="stop5945" style="stop-color:#ff7abe;stop-opacity:0"/></linearGradient><linearGradient id="linearGradient5915"><stop offset="0" id="stop5917" class="s0"/><stop offset="1" id="stop5919" class="s1"/></linearGradient><linearGradient id="linearGradient5897"><stop offset="0" id="stop5899" class="s0"/><stop offset="1" id="stop5901" class="s1"/></linearGradient><linearGradient id="linearGradient5875"><stop offset="0" id="stop5877" class="s0"/><stop offset="1" id="stop5879" class="s1"/></linearGradient><linearGradient id="linearGradient5849"><stop offset="0" id="stop5851" class="s2"/><stop offset="1" id="stop5853" class="s3"/></linearGradient><linearGradient id="linearGradient5839"><stop offset="0" id="stop5841" class="s2"/><stop offset="1" id="stop5843" class="s3"/></linearGradient><linearGradient id="linearGradient5821"><stop offset="0" id="stop5823" class="s2"/><stop offset="1" id="stop5825" class="s3"/></linearGradient><linearGradient id="linearGradient5811"><stop offset="0" id="stop5813" class="s2"/><stop offset="1" id="stop5815" class="s3"/></linearGradient><linearGradient id="linearGradient5781"><stop offset="0" id="stop5783" style="stop-color:#ff7608;stop-opacity:1"/><stop offset="1" id="stop5785" style="stop-color:#ff7608;stop-opacity:0"/></linearGradient><linearGradient id="linearGradient5763"><stop offset="0" id="stop5765" class="s0"/><stop offset="1" id="stop5767" class="s1"/></linearGradient><linearGradient id="linearGradient5749"><stop offset="0" id="stop5751" class="s0"/><stop offset="1" id="stop5753" class="s1"/></linearGradient><linearGradient id="linearGradient5735"><stop offset="0" id="stop5737" class="s0"/><stop offset="1" id="stop5739" class="s1"/></linearGradient><radialGradient xlink:href="#linearGradient5735" id="radialGradient5741" cx="36.1" cy="225.1" fx="36.1" fy="225.1" r="58.1" gradientTransform="matrix(0.73230564,-0.01006623,0.01198363,2.0119931,6.9778012,-227.40638)" gradientUnits="userSpaceOnUse"/><radialGradient xlink:href="#linearGradient5749" id="radialGradient5755" cx="178.1" cy="637.5" fx="178.1" fy="637.5" r="166.5" gradientTransform="matrix(0.83895347,-0.03996247,0.01735359,0.39722743,17.624359,391.37096)" gradientUnits="userSpaceOnUse"/><radialGradient xlink:href="#linearGradient5763" id="radialGradient5769" cx="-181.4" cy="-98.9" fx="-181.4" fy="-98.9" r="127.1" gradientTransform="matrix(0.82455445,0.09806268,0.0457278,0.43631444,-27.2947,-37.972777)" gradientUnits="userSpaceOnUse"/><radialGradient xlink:href="#linearGradient5781" id="radialGradient5787" cx="-145.2" cy="-136.3" fx="-145.2" fy="-136.3" r="69.1" gradientTransform="matrix(0.83408138,0.00379156,-0.00403091,0.82984536,-24.643107,-22.649579)" gradientUnits="userSpaceOnUse"/><radialGradient xlink:href="#linearGradient5811" id="radialGradient5817" cx="14.8" cy="-124.1" fx="14.8" fy="-124.1" r="104.3" gradientTransform="matrix(0.81752269,-0.00775276,0.00382255,0.43950222,3.1830095,-69.434348)" gradientUnits="userSpaceOnUse"/><radialGradient xlink:href="#linearGradient5821" id="radialGradient5827" cx="89.1" cy="-126.7" fx="89.1" fy="-126.7" r="58.1" gradientTransform="matrix(1,0,0,0.62631818,0,-47.333034)" gradientUnits="userSpaceOnUse"/><radialGradient xlink:href="#linearGradient5839" id="radialGradient5845" cx="59.4" cy="-156.4" fx="59.4" fy="-156.4" r="58.5" gradientUnits="userSpaceOnUse" gradientTransform="matrix(0.75035238,-0.00313742,0.00286579,0.74731057,15.271127,-39.322871)"/><radialGradient xlink:href="#linearGradient5849" id="radialGradient5855" cx="284.6" cy="-22.1" fx="284.6" fy="-22.1" r="31.6" gradientTransform="matrix(0.99897007,0.04737929,-0.07673654,1.7641298,-1.403777,3.4126152)" gradientUnits="userSpaceOnUse"/><radialGradient xlink:href="#linearGradient5875" id="radialGradient5881" cx="280.7" cy="-94.4" fx="280.7" fy="-94.4" r="48.1" gradientTransform="matrix(0.59677317,0,-2.8338864e-8,1.477252,113.20379,45.051237)" gradientUnits="userSpaceOnUse"/><radialGradient xlink:href="#linearGradient5897" id="radialGradient5903" cx="-83.9" cy="-151.2" fx="-83.9" fy="-151.2" r="95.3" gradientTransform="matrix(0.68897158,-0.04249846,0.05032948,0.76018786,-18.486115,-39.823206)" gradientUnits="userSpaceOnUse"/><radialGradient xlink:href="#linearGradient5915" id="radialGradient5921" cx="-95.5" cy="-163.5" fx="-95.5" fy="-163.5" r="59.9" gradientTransform="matrix(0.78586669,-0.03619868,0.0326535,0.77294799,-15.116186,-40.570151)" gradientUnits="userSpaceOnUse"/><radialGradient xlink:href="#linearGradient5941" id="radialGradient5947" cx="318.2" cy="274.1" fx="318.2" fy="274.1" r="454.4" gradientTransform="matrix(0.67918324,-0.022544,0.01909332,0.56491703,96.842739,126.43818)" gradientUnits="userSpaceOnUse"/><radialGradient xlink:href="#linearGradient3837" id="radialGradient3843" cx="-84.5" cy="-162.8" fx="-84.5" fy="-162.8" r="29" gradientTransform="matrix(0.8897915,-0.03778125,0.03450229,0.8859807,-3.700433,-21.757577)" gradientUnits="userSpaceOnUse"/></defs><metadata id="metadata5222"/><g id="layer1" transform="translate(0,-380)"><path id="path5927" d="m653.1 274.1c0 158.6-150 287.2-335 287.2-185 0-335-128.6-335-287.2 0-158.6 150-287.2 335-287.2 185 0 335 128.6 335 287.2z" transform="matrix(0.17610172,0,0,0.17770108,7.5302593,373.44455)" style="fill:url(#radialGradient5947);opacity:0.3"/><path id="path5887" d="m-3.9-151.2c0 43.5-35.8 78.7-80 78.7-44.2 0-80-35.3-80-78.7 0-43.5 35.8-78.7 80-78.7 44.2 0 80 35.3 80 78.7z" transform="matrix(0.23097843,0,0,0.23929645,54.641165,440.69072)" style="fill:url(#radialGradient5903);opacity:0.3"/><path id="path5761" d="m-54.2-98.9c0 42.4-56.9 76.8-127.1 76.8-70.2 0-127.1-34.4-127.1-76.8 0-42.4 56.9-76.8 127.1-76.8 70.2 0 127.1 34.4 127.1 76.8z" transform="matrix(0.17610172,-0.10786628,0,0.16864808,81.860171,450.82828)" style="fill:url(#radialGradient5769);opacity:0.3"/><path id="path5733" d="m94.2 225.1c0 87.3-26 158.1-58.1 158.1-32.1 0-58.1-70.8-58.1-158.1 0-87.3 26-158.1 58.1-158.1 32.1 0 58.1 70.8 58.1 158.1z" transform="matrix(0.44025432,0,0,0.28979935,-6.2219095,350.60547)" style="fill:url(#radialGradient5741);opacity:0.3"/><path id="path5747" d="m344.6 637.5c0 46.3-74.5 83.9-166.5 83.9-92 0-166.5-37.6-166.5-83.9 0-46.3 74.5-83.9 166.5-83.9 92 0 166.5 37.6 166.5 83.9z" transform="matrix(0.17610172,0,0,0.16864808,1.8475436,354.14515)" style="fill:url(#radialGradient5755);opacity:0.3"/><path id="path5779" d="m-76.2-136.3c0 36-30.9 65.2-69.1 65.2-38.1 0-69.1-29.2-69.1-65.2 0-36 30.9-65.2 69.1-65.2 38.1 0 69.1 29.2 69.1 65.2z" transform="matrix(0.26168386,0,0,0.27050484,54.736096,495.92452)" style="fill:url(#radialGradient5787);opacity:0.3"/><path id="path5797" d="m105.8-124.1c0 26.4-40.7 47.8-91 47.8-50.3 0-91-21.4-91-47.8 0-26.4 40.7-47.8 91-47.8 50.3 0 91 21.4 91 47.8z" transform="matrix(0.17610172,0,0,0.16864808,67.539734,434.47187)" style="fill:url(#radialGradient5817);opacity:0.3"/><path id="path5819" d="m147.1-126.7c0 27.1-26 49-58.1 49-32.1 0-58.1-22-58.1-49 0-27.1 26-49 58.1-49 32.1 0 58.1 22 58.1 49z" transform="matrix(0.17610172,0,0,0.16864808,43.672328,442.96169)" style="fill:url(#radialGradient5827);opacity:0.3"/><path id="path5833" d="m108.4-156.4c0 27.1-22 49-49 49-27.1 0-49-22-49-49 0-27.1 22-49 49-49 27.1 0 49 22 49 49z" transform="matrix(0.17610172,0,0,0.16864808,68.221658,434.90726)" style="fill:url(#radialGradient5845);opacity:0.3"/><path id="path5847" d="m316.2-22.1c0 39.2-14.2 71-31.6 71-17.5 0-31.6-31.8-31.6-71 0-39.2 14.2-71 31.6-71 17.5 0 31.6 31.8 31.6 71z" transform="matrix(0.17610172,0,0,0.16864808,6.6210247,413.57387)" style="fill:url(#radialGradient5855);opacity:0.3"/><path id="path5865" d="m315-94.4c0 50.3-15.3 91-34.2 91-18.9 0-34.2-40.7-34.2-91 0-50.3 15.3-91 34.2-91 18.9 0 34.2 40.7 34.2 91z" transform="matrix(0.17610172,0,0,0.27789414,41.853859,423.60528)" style="fill:url(#radialGradient5881);opacity:0.3"/><path id="path5909" d="m-45.2-163.5c0 27.4-22.5 49.7-50.3 49.7-27.8 0-50.3-22.2-50.3-49.7 0-27.4 22.5-49.7 50.3-49.7 27.8 0 50.3 22.2 50.3 49.7z" transform="matrix(0.17610172,0,0,0.16864808,50.946204,431.42425)" style="fill:url(#radialGradient5921);opacity:0.5"/><path id="path5949" d="m-55.5-162.8c0 16.4-13 29.7-29 29.7-16 0-29-13.3-29-29.7 0-16.4 13-29.7 29-29.7 16 0 29 13.3 29 29.7z" transform="matrix(0.17610172,0,0,0.16864808,49.127735,430.98888)" style="fill:url(#radialGradient3843);opacity:0.7"/></g></svg>