<svg xmlns:svg="http://www.w3.org/2000/svg" xmlns="http://www.w3.org/2000/svg" xmlns:xlink="http://www.w3.org/1999/xlink" width="100" height="100" id="svg2985" version="1.1"><style>.s0{stop-color:#ff0000;stop-opacity:1;}.s1{stop-color:#ff0000;stop-opacity:0;}</style><defs id="defs2987"><linearGradient id="linearGradient3876"><stop offset="0" id="stop3878" style="stop-color:#ffffff;stop-opacity:1"/><stop offset="1" id="stop3880" style="stop-color:#ffffff;stop-opacity:0"/></linearGradient><linearGradient id="linearGradient3819"><stop offset="0" id="stop3821" class="s0"/><stop offset="1" id="stop3823" class="s1"/></linearGradient><linearGradient id="linearGradient3805"><stop offset="0" id="stop3807" style="stop-color:#00ccff;stop-opacity:1"/><stop offset="1" id="stop3809" style="stop-color:#00ccff;stop-opacity:0"/></linearGradient><linearGradient id="linearGradient3795"><stop offset="0" id="stop3797" style="stop-color:#ffbc08;stop-opacity:1"/><stop offset="1" id="stop3799" style="stop-color:#ffbc08;stop-opacity:0"/></linearGradient><linearGradient id="linearGradient3781"><stop offset="0" id="stop3783" class="s0"/><stop offset="1" id="stop3785" class="s1"/></linearGradient><linearGradient id="linearGradient3767"><stop offset="0" id="stop3769" style="stop-color:#fbbabf;stop-opacity:1"/><stop offset="1" id="stop3771" style="stop-color:#fbbabf;stop-opacity:0"/></linearGradient><radialGradient xlink:href="#linearGradient3767" id="radialGradient3773" cx="321.4" cy="245.1" fx="321.4" fy="245.1" r="406" gradientTransform="matrix(0.78835714,0.06772442,-0.00189025,0.47758134,68.486184,106.26641)" gradientUnits="userSpaceOnUse"/><radialGradient xlink:href="#linearGradient3781" id="radialGradient3787" cx="316.9" cy="245.7" fx="316.9" fy="245.7" r="354.2" gradientTransform="matrix(0.65513212,-0.05150534,-0.01623675,0.41338671,113.27373,160.46596)" gradientUnits="userSpaceOnUse"/><radialGradient xlink:href="#linearGradient3795" id="radialGradient3801" cx="314.3" cy="251.5" fx="314.3" fy="251.5" r="211.7" gradientTransform="matrix(0.66616715,0,0,0.42122014,104.92532,145.5816)" gradientUnits="userSpaceOnUse"/><radialGradient xlink:href="#linearGradient3805" id="radialGradient3811" cx="324.6" cy="239.3" fx="324.6" fy="239.3" r="394.3" gradientTransform="matrix(0.99996178,-0.00874243,0.00676247,0.77349328,-1.6056463,57.034215)" gradientUnits="userSpaceOnUse"/><radialGradient xlink:href="#linearGradient3819" id="radialGradient3825" cx="-40.7" cy="40.5" fx="-40.7" fy="40.5" r="48.4" gradientTransform="matrix(0.52144592,-0.01290233,0.03986857,1.9832935,-21.072058,-40.337528)" gradientUnits="userSpaceOnUse"/><radialGradient xlink:href="#linearGradient3876" id="radialGradient3882" cx="-273" cy="301.2" fx="-273" fy="301.2" r="68.6" gradientTransform="matrix(0.68081259,-0.01308921,0.0151936,0.81781463,-91.714886,51.305806)" gradientUnits="userSpaceOnUse"/></defs><metadata id="metadata2990"/><g id="layer1" transform="translate(0,-380)"><path id="path3803" d="m719 239.3a394.3 313 0 1 1-788.7 0 394.3 313 0 1 1 788.7 0z" transform="matrix(0.18379496,0,0,0.24406074,-5.8727986,370.13053)" style="fill:url(#radialGradient3811);opacity:0.3"/><path id="path3775" d="m588.6 245.7a271.7 158.1 0 1 1-543.4 0 271.7 158.1 0 1 1 543.4 0z" transform="matrix(0.18379496,0.04802314,0,0.24406074,-5.8727986,354.91264)" style="fill:url(#radialGradient3787);opacity:0.3"/><path id="path3817" d="m7.7 40.5a48.4 151.7 0 1 10-1.5" transform="matrix(0.25397251,0,0,0.30397897,15.722462,416.37642)" style="fill:url(#radialGradient3825);opacity:0.3"/><path id="path3839" d="m-218.1 301.2a54.9 47.9 0 1 1-109.7 0 54.9 47.9 0 1 1 109.7 0z" transform="matrix(0.23498474,0,0,0.30673556,148.31019,361.17459)" style="fill:url(#radialGradient3882);opacity:0.8"/><path id="path2993" d="m627.3 245.1a305.9 215.6 0 1 1-611.8 0 305.9 215.6 0 1 1 611.8 0z" transform="matrix(0.18379496,-0.03878329,0,0.24406074,-5.8727986,382.59564)" style="fill:url(#radialGradient3773);opacity:0.3"/><path id="path3789" d="m476.3 251.5a162 96.8 0 1 1-324 0 162 96.8 0 1 1 324 0z" transform="matrix(0.18379496,0,0,0.24406074,-5.8727986,370.13053)" style="fill:url(#radialGradient3801);opacity:0.3"/></g></svg>