<svg xmlns:svg="http://www.w3.org/2000/svg" xmlns="http://www.w3.org/2000/svg" xmlns:xlink="http://www.w3.org/1999/xlink" width="640" height="480" id="svg2" version="1.1"><style>.s0{stop-color:#f5989d;stop-opacity:1;}.s1{stop-color:#f5989d;stop-opacity:0;}</style><defs id="defs4"><linearGradient id="linearGradient3907"><stop offset="0" id="stop3909" class="s0"/><stop offset="1" id="stop3911" class="s1"/></linearGradient><linearGradient id="linearGradient3885"><stop offset="0" id="stop3887" style="stop-color:#ffdb00;stop-opacity:1"/><stop offset="1" id="stop3889" style="stop-color:#ffdb00;stop-opacity:0"/></linearGradient><linearGradient id="linearGradient3871"><stop offset="0" id="stop3873" style="stop-color:#ff0000;stop-opacity:1"/><stop offset="1" id="stop3875" style="stop-color:#ff0000;stop-opacity:0"/></linearGradient><linearGradient id="linearGradient3857"><stop offset="0" id="stop3859" class="s0"/><stop offset="1" id="stop3861" class="s1"/></linearGradient><linearGradient xlink:href="#linearGradient3857" id="linearGradient3863" x1="24" y1="48.8" x2="386.2" y2="325.8" gradientUnits="userSpaceOnUse"/><filter id="filter3865" x="-0.1" width="1.2" y="-0.1" height="1.2"><feGaussianBlur stdDeviation="22.4" id="feGaussianBlur3867"/></filter><radialGradient xlink:href="#linearGradient3871" id="radialGradient3877" cx="19.3" cy="357.1" fx="19.3" fy="357.1" r="116.1" gradientTransform="matrix(1,0,0,0.98654709,0,4.8038114)" gradientUnits="userSpaceOnUse"/><filter id="filter3879"><feGaussianBlur stdDeviation="9.2" id="feGaussianBlur3881"/></filter><radialGradient xlink:href="#linearGradient3885" id="radialGradient3891" cx="492.7" cy="154" fx="492.7" fy="154" r="142.7" gradientTransform="matrix(1,0,0,0.62043796,0,58.436737)" gradientUnits="userSpaceOnUse"/><filter id="filter3901" x="-0.1" width="1.2" y="-0.1" height="1.3"><feGaussianBlur stdDeviation="9.5" id="feGaussianBlur3903"/></filter><radialGradient xlink:href="#linearGradient3907" id="radialGradient3913" cx="615.6" cy="269.6" fx="615.6" fy="269.6" r="87.5" gradientTransform="matrix(1,0,0,2.6190477,0,-436.46829)" gradientUnits="userSpaceOnUse"/><filter id="filter3919" x="-0.2" width="1.3" y="-0.1" height="1.1"><feGaussianBlur stdDeviation="11.9" id="feGaussianBlur3921"/></filter></defs><metadata id="metadata7"/><g id="layer1" transform="translate(0,-572.36218)"><path id="path3869" d="m135.4 357.1c0 63.3-52 114.6-116.1 114.6-64.1 0-116.1-51.3-116.1-114.6 0-63.3 52-114.6 116.1-114.6 64.1 0 116.1 51.3 116.1 114.6z" transform="matrix(1.2466367,0,0,1.1863636,-26.107062,453.21067)" style="fill:url(#radialGradient3877);filter:url(#filter3879);opacity:0.3"/><rect id="rect3087" width="588.5" height="531.3" x="-49" y="-54.4" transform="matrix(1.0089793,0,0,1.1761252,-5.3277462,591.40572)" style="fill:url(#linearGradient3863);filter:url(#filter3865);opacity:0.3"/><path id="path3883" d="m635.4 154c0 48.9-63.9 88.5-142.7 88.5-78.8 0-142.7-39.6-142.7-88.5 0-48.9 63.9-88.5 142.7-88.5 78.8 0 142.7 39.6 142.7 88.5z" transform="matrix(1.2262774,0,0,1,-240.65542,555.69551)" style="fill:url(#radialGradient3891);filter:url(#filter3901);opacity:0.3"/><path id="path3905" d="m703.1 269.6c0 126.6-39.2 229.2-87.5 229.2-48.3 0-87.5-102.6-87.5-229.2 0-126.6 39.2-229.2 87.5-229.2 48.3 0 87.5 102.6 87.5 229.2z" transform="matrix(1.3690476,0,0,1,-417.81994,666.11218)" style="fill:url(#radialGradient3913);filter:url(#filter3919);opacity:0.3"/></g></svg>